<?xml version="1.0" encoding="UTF-8" standalone="no"?>
<svg
   xmlns:dc="http://purl.org/dc/elements/1.1/"
   xmlns:cc="http://creativecommons.org/ns#"
   xmlns:rdf="http://www.w3.org/1999/02/22-rdf-syntax-ns#"
   xmlns:svg="http://www.w3.org/2000/svg"
   xmlns="http://www.w3.org/2000/svg"
   xmlns:sodipodi="http://sodipodi.sourceforge.net/DTD/sodipodi-0.dtd"
   xmlns:inkscape="http://www.inkscape.org/namespaces/inkscape"
   sodipodi:docname="magicleap.svg"
   inkscape:version="1.0 (4035a4fb49, 2020-05-01)"
   id="svg8"
   version="1.1"
   viewBox="0 0 388.09308 58.581264"
   height="58.581264mm"
   width="388.09308mm">
  <defs
     id="defs2" />
  <sodipodi:namedview
     inkscape:window-maximized="1"
     inkscape:window-y="-8"
     inkscape:window-x="-8"
     inkscape:window-height="837"
     inkscape:window-width="1600"
     showgrid="false"
     inkscape:document-rotation="0"
     inkscape:current-layer="layer1"
     inkscape:document-units="mm"
     inkscape:cy="215.97632"
     inkscape:cx="937.40019"
     inkscape:zoom="0.49497475"
     inkscape:pageshadow="2"
     inkscape:pageopacity="0.0"
     borderopacity="1.0"
     bordercolor="#666666"
     pagecolor="#ffffff"
     id="base" />
  <metadata
     id="metadata5">
    <rdf:RDF>
      <cc:Work
         rdf:about="">
        <dc:format>image/svg+xml</dc:format>
        <dc:type
           rdf:resource="http://purl.org/dc/dcmitype/StillImage" />
        <dc:title></dc:title>
      </cc:Work>
    </rdf:RDF>
  </metadata>
  <g
     transform="translate(203.74004,-69.767253)"
     id="layer1"
     inkscape:groupmode="layer"
     inkscape:label="Layer 1">
    <path
       id="path853"
       d="m -165.19398,128.10768 c -10.22081,-1.18993 -18.58457,-7.13896 -23.34327,-16.60374 l -0.8452,-1.68105 -1.19082,0.17857 c -1.76524,0.26471 -7.269,1.63617 -10.24888,2.55388 -1.55109,0.47768 -2.70831,0.70737 -2.85001,0.56568 -0.58793,-0.58793 2.76921,-8.50997 5.20745,-12.28831 1.64043,-2.542055 2.89804,-4.077495 5.70249,-6.962315 2.13857,-2.19985 2.38324,-2.565 3.21178,-4.7933 6.6246,-17.81637 27.67215,-24.83571 43.51269,-14.51143 5.34402,3.48303 9.25662,8.43153 11.55553,14.61499 0.7737,2.08104 1.10434,2.62009 2.22535,3.62797 3.11061,2.79671 6.82214,7.837395 9.0571,12.300575 1.24222,2.48072 2.90885,6.88787 2.90885,7.69202 0,0.64828 -0.33226,0.64632 -2.24967,-0.0135 -1.89017,-0.65032 -9.34059,-2.53042 -11.0092,-2.77816 l -1.22033,-0.18118 -0.83155,1.77697 c -2.76212,5.90251 -8.41141,11.43296 -14.45488,14.15081 -2.4047,1.08143 -6.00787,2.03004 -8.99583,2.36829 -2.67228,0.30252 -3.41553,0.30048 -6.1416,-0.0169 z m -9.30785,-32.561055 c 2.4447,-1.6641 3.72684,-4.1419 3.74245,-7.23248 0.0201,-3.98623 -2.37021,-6.74688 -5.84192,-6.74688 -1.78349,0 -3.42428,0.77805 -4.80914,2.28044 -1.61624,1.75342 -2.19683,3.26424 -2.22477,5.78935 -0.0201,1.81306 0.0833,2.33397 0.72052,3.63164 1.16637,2.37521 2.98512,3.44214 5.5675,3.26604 1.21371,-0.0828 1.8295,-0.29661 2.84536,-0.98811 z m 29.96219,0.816 c 1.55147,-0.4308 3.22513,-2.2574 3.76269,-4.10653 0.87259,-3.00163 0.12399,-6.09689 -2.04612,-8.46014 -1.41484,-1.54076 -2.83018,-2.21526 -4.66433,-2.22288 -1.73898,-0.007 -3.11912,0.66135 -4.36151,2.11281 -1.1958,1.39701 -1.61691,2.94359 -1.45867,5.35705 0.15847,2.41688 1.01641,4.18325 2.81903,5.80396 1.87901,1.68939 3.67525,2.14706 5.94891,1.51573 z m 299.52582,31.412895 c -0.0756,-0.19711 -0.0985,-7.48969 -0.0507,-16.20572 0.0841,-15.344265 0.10449,-15.893925 0.64238,-17.315255 0.94917,-2.50803 1.69281,-3.74508 3.20345,-5.32881 1.81485,-1.90269 3.47228,-2.97875 5.94653,-3.86067 1.64365,-0.58585 2.36234,-0.68503 4.96457,-0.68503 2.60223,0 3.32091,0.0992 4.96456,0.68503 4.48106,1.59723 7.55345,4.71413 9.07084,9.2022 0.69924,2.06818 0.83812,6.214055 0.28361,8.466665 -1.37054,5.56766 -5.95964,9.92045 -11.44892,10.85932 -3.44173,0.58867 -7.76198,-0.39423 -9.9446,-2.26248 -0.59368,-0.50816 -1.14978,-0.92392 -1.23579,-0.92392 -0.086,0 -0.15637,3.80026 -0.15637,8.44502 0,4.64476 -0.0723,8.63335 -0.1606,8.86354 -0.13288,0.34629 -0.6594,0.41852 -3.05102,0.41852 -2.18728,0 -2.92386,-0.0872 -3.02794,-0.35841 z m 17.71896,-20.81977 c 2.63879,-0.98729 4.40975,-3.26776 4.89955,-6.3091 0.64024,-3.975525 -1.01708,-7.514875 -4.32361,-9.233485 -1.14768,-0.59651 -1.66206,-0.69467 -3.58867,-0.68483 -2.68931,0.0137 -3.74754,0.41747 -5.5752,2.12704 -1.6842,1.57537 -2.36283,3.33411 -2.36082,6.11817 0.003,2.455795 0.27035,3.515585 1.30397,5.145465 1.87809,2.96141 6.03991,4.18549 9.64478,2.83674 z M -8.2015286,127.46781 c -2.2607904,-0.5729 -5.1129704,-2.17103 -6.6910804,-3.74917 -1.54129,-1.54128 -2.86535,-3.60764 -2.65796,-4.14808 0.0749,-0.19511 1.35511,-0.86911 2.84498,-1.49781 2.70791,-1.14266 2.709,-1.14284 3.13207,-0.59441 0.23277,0.30173 0.73293,0.94864 1.11145,1.43759 1.7821804,2.30198 5.9135304,3.25913 9.0151704,2.08864 1.88025003,-0.70958 3.49402,-2.24859 4.41101,-4.20661 0.58407,-1.24711 0.71591,-1.94799 0.79174,-4.2083 0.05,-1.49159 0.01,-2.71198 -0.0895,-2.71198 -0.0992,0 -0.64321,0.39609 -1.20881,0.88021 -3.05381997,2.61398 -6.97596,3.34762 -11.3589,2.12471 -7.5335104,-2.10198 -11.8572904,-10.13382 -9.7953704,-18.195855 0.69262,-2.70811 1.65304,-4.42482 3.57766,-6.39494 4.44146,-4.54646 12.1542604,-5.65003 17.9452304,-2.56766 1.90892,1.01606 4.92056,4.09915 5.8048,5.94252 1.4384596,2.99872 1.5176796,3.74203 1.5176796,14.242265 0,7.77192 -0.0786,9.98014 -0.3989696,11.2101 -1.21211,4.65365 -4.46225,8.19481 -9.07874997,9.89172 -2.25958003,0.83058 -6.53033003,1.05058 -8.87247003,0.45706 z m 7.25560003,-21.06265 c 1.63664,-0.70406 3.48603997,-2.70044 4.05878997,-4.38136 0.24328,-0.71403 0.42122,-2.106205 0.42122,-3.295825 0,-4.99068 -2.76406997,-8.10606 -7.43171,-8.37627 -1.46043,-0.0845 -2.40519,0.008 -3.3757,0.33023 -1.79319,0.5956 -3.7777004,2.40478 -4.5131704,4.11443 -1.72238,4.00377 -0.41461,9.137995 2.8087604,11.027015 2.57504,1.50908 5.40051,1.71374 8.03181003,0.58178 z m 99.71692957,7.17142 c -7.9181,-1.22433 -13.46242,-8.54658 -12.47812,-16.479525 0.73642,-5.93508 5.11487,-10.94999 10.9057,-12.49097 0.79926,-0.21268 2.44803,-0.38812 3.663979,-0.38984 4.23976,-0.006 7.46366,1.32953 10.51116,4.35444 2.90168,2.88018 4.45349,6.63549 4.2899,10.38143 l -0.0785,1.797435 -11.24479,0.1323 c -10.992749,0.12932 -11.246459,0.14415 -11.319509,0.66145 -0.1284,0.90959 1.55573,3.36608 2.94519,4.29589 1.7186,1.15007 3.07117,1.47271 5.596199,1.33493 2.30275,-0.12565 3.65223,-0.65499 5.25309,-2.06057 0.4962,-0.43566 1.08871,-0.79212 1.31664,-0.79212 0.22797,0 1.49218,0.44001 2.80935,0.9778 1.90577,0.77811 2.39488,1.08716 2.39488,1.51326 0,0.87835 -3.8336,4.4066 -5.82084,5.35717 -2.73095,1.30635 -5.99665,1.83179 -8.744319,1.40692 z m 9.665549,-18.243205 c 0.24085,-0.38969 -0.49467,-1.61326 -1.62703,-2.7067 -3.57669,-3.4537 -10.037839,-2.89181 -12.681369,1.10284 -1.24304,1.87834 -1.30837,1.86067 6.880959,1.86067 4.41381,0 7.33108,-0.10087 7.42744,-0.25681 z m 23.51217,18.223385 c -7.1202,-1.18956 -11.98671,-7.13972 -11.98949,-14.659285 -0.003,-8.13913 6.34924,-14.65009 14.32187,-14.67978 5.56255,-0.0207 11.17071,3.209 13.38604,7.70898 1.52413,3.09595 1.66799,4.30617 1.59004,13.375025 -0.0644,7.48632 -0.10692,8.14788 -0.52943,8.22919 -0.26773,0.0515 -1.40676,-0.69231 -2.72944,-1.78242 -1.24849,-1.02894 -2.38631,-1.87079 -2.52847,-1.87079 -0.14216,0 -0.87844,0.46285 -1.63618,1.02854 -1.91569,1.43021 -3.39119,2.12402 -5.44065,2.55842 -1.94922,0.41314 -2.45952,0.42373 -4.44429,0.0921 z m 6.28983,-6.85873 c 1.75268,-0.87684 3.33595,-2.55019 3.93973,-4.16389 0.72623,-1.94102 0.7171,-5.092075 -0.0204,-7.063325 -1.38015,-3.68878 -5.76755,-5.75969 -9.81861,-4.63453 -3.83696,1.0657 -6.21364,5.28359 -5.49397,9.750135 0.52245,3.24246 2.17207,5.32665 5.07008,6.40576 1.81885,0.67727 4.64418,0.54584 6.3232,-0.29415 z m -121.146799,6.71414 -0.59756,-0.13229 0.0684,-14.599535 0.0684,-14.59954 h 2.91042 2.91041 l 0.0684,14.40426 c 0.0377,7.922345 -0.0322,14.504965 -0.15536,14.628075 -0.26001,0.26 -4.39111,0.49429 -5.27312,0.29903 z m -60.09462,-0.51308 c -10.43772,-2.80707 -13.93455,-16.917565 -6.13293,-24.747795 8.04579,-8.07529 22.42142,-3.95454 24.76352,7.09841 0.28307,1.33588 0.38168,3.87899 0.3851,9.931615 0.005,9.55591 0.1617,9.21862 -2.96321,6.39435 -2.63659,-2.38292 -2.54476,-2.35354 -3.92595,-1.25647 -3.3855,2.68908 -8.0391,3.67913 -12.12653,2.57989 z m 7.46793,-6.40599 c 1.6863,-0.58073 3.20394,-1.91349 4.08845,-3.59041 0.6538,-1.23952 0.71702,-1.61601 0.71702,-4.269795 0,-2.51407 -0.0813,-3.06255 -0.59693,-4.02754 -0.93271,-1.74549 -2.0897,-2.90024 -3.69065,-3.68351 -1.95398,-0.956 -4.81788,-1.00683 -6.85106,-0.12161 -2.97022,1.29319 -4.68067,4.03938 -4.71375,7.56807 -0.0248,2.642445 0.56119,4.431485 1.97903,6.042225 2.23035,2.53381 5.54622,3.29535 9.06789,2.08257 z m 74.92006,6.53307 c -5.7694,-1.29712 -9.92328,-5.43265 -11.1065,-11.05739 -1.68571,-8.013655 2.52921,-15.302455 10.18045,-17.604925 2.10492,-0.63343 6.54654,-0.58264 8.75626,0.10012 1.83388,0.56663 4.41319,2.00495 5.63147,3.14033 0.98785,0.92063 2.28102,2.68123 2.28102,3.10553 0,0.18256 -0.68461,0.71562 -1.52135,1.18458 -0.83674,0.46897 -2.01679,1.14029 -2.62231,1.49183 l -1.10096,0.63916 -1.148,-1.16348 c -1.68029,-1.70295 -3.14142,-2.36332 -5.54712,-2.50705 -2.80861,-0.16781 -4.42548,0.39935 -6.20146,2.17534 -1.7316,1.73159 -2.34884,3.41692 -2.33202,6.36726 0.0204,3.552935 1.67693,6.207855 4.73052,7.581055 2.00122,0.89995 4.81009,0.85117 6.79087,-0.11794 0.82288,-0.4026 1.92323,-1.20471 2.44517,-1.78246 0.52197,-0.57775 1.12906,-1.05045 1.34911,-1.05045 0.59939,0 4.91567,2.39714 5.07802,2.82017 0.0774,0.20186 -0.26707,0.89058 -0.76562,1.5305 -1.90762,2.4485 -4.83894,4.30716 -7.94952,5.04056 -1.81451,0.42783 -5.28402,0.48138 -6.94803,0.10726 z m -142.029211,-0.14192 c -0.3109,-0.31092 -0.21396,-17.919275 0.10716,-19.463855 0.77672,-3.73602 3.420393,-7.07454 7.00546,-8.84675 l 2.067449,-1.022 3.321446,0.003 c 3.96838,0.004 5.323652,0.43421 7.896956,2.50781 l 1.6422,1.32329 1.61149,-1.29855 c 2.47682,-1.99584 4.193,-2.53576 8.06023,-2.53576 3.17559,0 3.19855,0.005 5.29167,1.03643 3.81551,1.88108 6.62193,5.62575 7.25401,9.6792 0.31817,2.04038 0.35999,17.972795 0.0485,18.463755 -0.1598,0.25186 -0.99782,0.32036 -3.23709,0.26459 l -3.02148,-0.0752 -0.13229,-9.26042 c -0.14382,-10.066765 -0.10528,-9.806955 -1.74347,-11.753835 -2.58652,-3.0739 -7.7408,-2.56666 -9.81743,0.96615 l -0.74223,1.26269 -0.13229,9.392705 -0.13229,9.39271 h -3.175 -3.175 l -0.132293,-9.26042 c -0.08988,-6.291275 -0.232648,-9.484275 -0.445297,-9.958625 -1.006321,-2.24477 -3.345709,-3.77534 -5.772411,-3.77666 -1.774066,-10e-4 -2.921725,0.47501 -4.322054,1.79251 -1.785188,1.67961 -1.749867,1.45954 -1.895655,11.810485 l -0.132291,9.39271 -3.056811,0.0741 c -1.681239,0.0408 -3.139759,-0.009 -3.241149,-0.11022 z m 181.231571,-0.38024 c -3.02427,-1.04034 -5.21896,-3.0417 -6.31907,-5.76241 -0.60368,-1.49303 -0.60413,-1.50482 -0.60413,-16.046205 v -14.55209 h 3.04271 3.04271 l 0.13229,13.75834 c 0.12766,13.276495 0.15132,13.790725 0.67577,14.683465 0.62196,1.05874 2.05124,2.11566 2.86909,2.12162 1.10432,0.008 1.33363,0.40612 1.43931,2.49846 0.0555,1.09991 0.023,2.41556 -0.0723,2.92367 -0.16915,0.90159 -0.20325,0.92361 -1.41809,0.91496 -0.68463,-0.005 -1.93934,-0.24779 -2.78825,-0.53981 z M 17.439441,77.543295 c -3.66895,-2.13239 -2.24367,-7.73043 1.96429,-7.7151 2.50211,0.009 4.10639,1.61594 4.10639,4.1129 0,1.61011 -0.44681,2.48229 -1.78258,3.47958 -1.07331,0.80133 -3.02432,0.85712 -4.2881,0.12262 z"
       style="fill:#ea2845;stroke-width:1" />
  </g>
</svg>
